<?xml version="1.0" encoding="UTF-8" standalone="no"?>
<!-- Created with Inkscape (http://www.inkscape.org/) -->

<svg
   xmlns:dc="http://purl.org/dc/elements/1.1/"
   xmlns:cc="http://creativecommons.org/ns#"
   xmlns:rdf="http://www.w3.org/1999/02/22-rdf-syntax-ns#"
   xmlns:svg="http://www.w3.org/2000/svg"
   xmlns="http://www.w3.org/2000/svg"
   xmlns:xlink="http://www.w3.org/1999/xlink"
   xmlns:sodipodi="http://sodipodi.sourceforge.net/DTD/sodipodi-0.dtd"
   xmlns:inkscape="http://www.inkscape.org/namespaces/inkscape"
   width="1024"
   height="1024"
   id="svg2"
   version="1.1"
   inkscape:version="0.91 r13725"
   sodipodi:docname="pics2pdf.svg"
   inkscape:export-filename="/home/adam/logo_stuff/dragonfly/icon/AppIconTemplate/AppIconTemplate_white_on_reg.png"
   inkscape:export-xdpi="300"
   inkscape:export-ydpi="300">
  <defs
     id="defs4">
    <linearGradient
       id="linearGradient3902">
      <stop
         style="stop-color:#ffffff;stop-opacity:1;"
         offset="0"
         id="stop3904" />
      <stop
         style="stop-color:#fff9f9;stop-opacity:0.72868216;"
         offset="1"
         id="stop3906" />
    </linearGradient>
    <linearGradient
       id="linearGradient4110">
      <stop
         style="stop-color:#ee2722;stop-opacity:1"
         offset="0"
         id="stop4112" />
      <stop
         style="stop-color:#231f20;stop-opacity:1"
         offset="1"
         id="stop4114" />
    </linearGradient>
    <inkscape:perspective
       sodipodi:type="inkscape:persp3d"
       inkscape:vp_x="311.44562 : -50.153865 : 1"
       inkscape:vp_y="0 : 1971.1104 : 0"
       inkscape:vp_z="2296.912 : 28.246575 : 1"
       inkscape:persp3d-origin="1096.3346 : -286.37838 : 1"
       id="perspective4094" />
    <linearGradient
       id="linearGradient4483">
      <stop
         style="stop-color:#056aff;stop-opacity:1;"
         offset="0"
         id="stop4485" />
      <stop
         style="stop-color:#ffffff;stop-opacity:0;"
         offset="1"
         id="stop4487" />
    </linearGradient>
    <linearGradient
       inkscape:collect="always"
       xlink:href="#linearGradient4300"
       id="linearGradient4116"
       x1="705.39978"
       y1="3.0559924"
       x2="314.82864"
       y2="1022.4821"
       gradientUnits="userSpaceOnUse"
       gradientTransform="scale(1,1.001095)" />
    <linearGradient
       inkscape:collect="always"
       xlink:href="#linearGradient3902"
       id="linearGradient3908"
       x1="509.1376"
       y1="513.90118"
       x2="467.15973"
       y2="1029.1136"
       gradientUnits="userSpaceOnUse"
       gradientTransform="matrix(1.2524295,0,0,1.2524296,-146.91309,-129.30104)" />
    <linearGradient
       inkscape:collect="always"
       id="linearGradient4300">
      <stop
         style="stop-color:#cf000f;stop-opacity:1"
         offset="0"
         id="stop4302" />
      <stop
         style="stop-color:#74100d;stop-opacity:1"
         offset="1"
         id="stop4304" />
    </linearGradient>
    <clipPath
       clipPathUnits="userSpaceOnUse"
       id="clipPath4759">
      <rect
         style="opacity:0.37656902;fill:#ffffff;fill-opacity:1;stroke:none"
         id="rect4761"
         width="72"
         height="53"
         x="12"
         y="25" />
    </clipPath>
    <linearGradient
       id="linearGradient2823">
      <stop
         id="stop2825"
         offset="0"
         style="stop-color:#4d3719;stop-opacity:1;" />
      <stop
         id="stop2866"
         offset="0.69999999"
         style="stop-color:#ddae66;stop-opacity:1;" />
      <stop
         id="stop2827"
         offset="1"
         style="stop-color:#b2731c;stop-opacity:1;" />
    </linearGradient>
    <linearGradient
       id="linearGradient2713">
      <stop
         style="stop-color:#b20033;stop-opacity:1.0000000;"
         offset="0.0000000"
         id="stop2715" />
      <stop
         style="stop-color:#ffe77c;stop-opacity:1.0000000;"
         offset="1.0000000"
         id="stop2721" />
    </linearGradient>
    <linearGradient
       id="linearGradient2785">
      <stop
         id="stop2787"
         offset="0.0000000"
         style="stop-color:#000000;stop-opacity:0.0000000;" />
      <stop
         id="stop2793"
         offset="0.36000001"
         style="stop-color:#000000;stop-opacity:0.49803922;" />
      <stop
         id="stop2789"
         offset="1"
         style="stop-color:#000000;stop-opacity:0;" />
    </linearGradient>
    <linearGradient
       id="linearGradient2469">
      <stop
         style="stop-color:#f6754e;stop-opacity:1.0000000;"
         offset="0.0000000"
         id="stop2471" />
      <stop
         style="stop-color:#ffa879;stop-opacity:1.0000000;"
         offset="1.0000000"
         id="stop2473" />
    </linearGradient>
    <linearGradient
       id="linearGradient2463">
      <stop
         style="stop-color:#fda5cf;stop-opacity:1.0000000;"
         offset="0.0000000"
         id="stop2465" />
      <stop
         style="stop-color:#ce2c79;stop-opacity:1.0000000;"
         offset="1.0000000"
         id="stop2467" />
    </linearGradient>
    <linearGradient
       id="linearGradient2453">
      <stop
         style="stop-color:#f6b94e;stop-opacity:1.0000000;"
         offset="0.0000000"
         id="stop2455" />
      <stop
         style="stop-color:#ffc340;stop-opacity:1.0000000;"
         offset="1.0000000"
         id="stop2457" />
    </linearGradient>
    <linearGradient
       id="linearGradient2447">
      <stop
         style="stop-color:#ffd625;stop-opacity:1.0000000;"
         offset="0.0000000"
         id="stop2449" />
      <stop
         style="stop-color:#fff0ab;stop-opacity:1.0000000;"
         offset="1.0000000"
         id="stop2451" />
    </linearGradient>
    <linearGradient
       id="linearGradient2441">
      <stop
         style="stop-color:#b0e9c0;stop-opacity:1.0000000;"
         offset="0.0000000"
         id="stop2443" />
      <stop
         style="stop-color:#75df92;stop-opacity:1.0000000;"
         offset="1.0000000"
         id="stop2445" />
    </linearGradient>
    <linearGradient
       id="linearGradient4273">
      <stop
         style="stop-color:#590012;stop-opacity:1.0000000;"
         offset="0.0000000"
         id="stop4275" />
      <stop
         style="stop-color:#a3211f;stop-opacity:1.0000000;"
         offset="0.93000001"
         id="stop4466" />
      <stop
         style="stop-color:#650014;stop-opacity:1.0000000;"
         offset="0.94000000"
         id="stop4468" />
      <stop
         style="stop-color:#ee6c68;stop-opacity:1.0000000;"
         offset="1.0000000"
         id="stop4277" />
    </linearGradient>
    <linearGradient
       id="linearGradient4368">
      <stop
         style="stop-color:#8a1e51;stop-opacity:1;"
         offset="0"
         id="stop4370" />
      <stop
         style="stop-color:#7e1b4a;stop-opacity:1.0000000;"
         offset="1.0000000"
         id="stop4372" />
    </linearGradient>
    <linearGradient
       id="linearGradient4321">
      <stop
         style="stop-color:#b20033;stop-opacity:1.0000000;"
         offset="0.0000000"
         id="stop4323" />
      <stop
         style="stop-color:#ff7cba;stop-opacity:1.0000000;"
         offset="0.46000001"
         id="stop4337" />
      <stop
         style="stop-color:#9c225b;stop-opacity:1.0000000;"
         offset="0.55000001"
         id="stop4339" />
      <stop
         style="stop-color:#ff7ca1;stop-opacity:1.0000000;"
         offset="1.0000000"
         id="stop4325" />
    </linearGradient>
    <linearGradient
       id="linearGradient4382">
      <stop
         style="stop-color:#7e5c08;stop-opacity:1.0000000;"
         offset="0.0000000"
         id="stop4384" />
      <stop
         style="stop-color:#6e4b11;stop-opacity:1.0000000;"
         offset="1.0000000"
         id="stop4386" />
    </linearGradient>
    <linearGradient
       id="linearGradient4360">
      <stop
         style="stop-color:#83190b;stop-opacity:1;"
         offset="0"
         id="stop4362" />
      <stop
         style="stop-color:#721509;stop-opacity:1.0000000;"
         offset="1.0000000"
         id="stop4364" />
    </linearGradient>
    <linearGradient
       id="linearGradient4392">
      <stop
         style="stop-color:#214b2c;stop-opacity:1.0000000;"
         offset="0.0000000"
         id="stop4394" />
      <stop
         style="stop-color:#1a3b23;stop-opacity:1.0000000;"
         offset="1.0000000"
         id="stop4396" />
    </linearGradient>
    <linearGradient
       id="linearGradient4352">
      <stop
         style="stop-color:#833c0b;stop-opacity:1.0000000;"
         offset="0.0000000"
         id="stop4354" />
      <stop
         style="stop-color:#723409;stop-opacity:1.0000000;"
         offset="1.0000000"
         id="stop4356" />
    </linearGradient>
    <linearGradient
       id="linearGradient4402">
      <stop
         style="stop-color:#540d0d;stop-opacity:1.0000000;"
         offset="0.0000000"
         id="stop4404" />
      <stop
         style="stop-color:#7e2316;stop-opacity:1.0000000;"
         offset="0.34999999"
         id="stop4462" />
      <stop
         style="stop-color:#a93a1f;stop-opacity:1.0000000;"
         offset="0.43000001"
         id="stop4460" />
      <stop
         style="stop-color:#ff6731;stop-opacity:1.0000000;"
         offset="0.62000000"
         id="stop4410" />
      <stop
         style="stop-color:#9f2819;stop-opacity:1.0000000;"
         offset="0.66000003"
         id="stop4412" />
      <stop
         style="stop-color:#e1734d;stop-opacity:1.0000000;"
         offset="0.77000004"
         id="stop4436" />
      <stop
         style="stop-color:#ffb47c;stop-opacity:1.0000000;"
         offset="1.0000000"
         id="stop4406" />
    </linearGradient>
    <linearGradient
       id="linearGradient4440">
      <stop
         style="stop-color:#7c2b00;stop-opacity:1.0000000;"
         offset="0.0000000"
         id="stop4442" />
      <stop
         style="stop-color:#a56116;stop-opacity:1.0000000;"
         offset="0.35250002"
         id="stop4458" />
      <stop
         style="stop-color:#cf982c;stop-opacity:1.0000000;"
         offset="0.42500001"
         id="stop4456" />
      <stop
         style="stop-color:#ffdb59;stop-opacity:1.0000000;"
         offset="0.61000001"
         id="stop4452" />
      <stop
         style="stop-color:#d07100;stop-opacity:1.0000000;"
         offset="0.63999999"
         id="stop4448" />
      <stop
         style="stop-color:#fff77c;stop-opacity:1.0000000;"
         offset="1.0000000"
         id="stop4444" />
    </linearGradient>
    <linearGradient
       id="linearGradient4472">
      <stop
         style="stop-color:#6a5000;stop-opacity:1.0000000;"
         offset="0.0000000"
         id="stop4474" />
      <stop
         style="stop-color:#b49b1d;stop-opacity:1.0000000;"
         offset="0.36499998"
         id="stop4486" />
      <stop
         style="stop-color:#ffe63b;stop-opacity:1.0000000;"
         offset="0.47000000"
         id="stop4484" />
      <stop
         style="stop-color:#fde55f;stop-opacity:1.0000000;"
         offset="0.62000000"
         id="stop4480" />
      <stop
         style="stop-color:#af8800;stop-opacity:1.0000000;"
         offset="0.65999997"
         id="stop4482" />
      <stop
         style="stop-color:#fcff96;stop-opacity:1.0000000;"
         offset="1.0000000"
         id="stop4476" />
    </linearGradient>
    <linearGradient
       id="linearGradient4498">
      <stop
         style="stop-color:#1a3b23;stop-opacity:1.0000000;"
         offset="0.0000000"
         id="stop4500" />
      <stop
         style="stop-color:#255431;stop-opacity:1.0000000;"
         offset="0.34000000"
         id="stop4510" />
      <stop
         style="stop-color:#306d40;stop-opacity:1.0000000;"
         offset="0.42000002"
         id="stop4508" />
      <stop
         style="stop-color:#58c977;stop-opacity:1.0000000;"
         offset="0.62000000"
         id="stop4506" />
      <stop
         style="stop-color:#2f6a3f;stop-opacity:1.0000000;"
         offset="0.63999999"
         id="stop4504" />
      <stop
         style="stop-color:#86ffa7;stop-opacity:1.0000000;"
         offset="1.0000000"
         id="stop4502" />
    </linearGradient>
    <linearGradient
       id="linearGradient2330">
      <stop
         style="stop-color:#54250d;stop-opacity:1.0000000;"
         offset="0.0000000"
         id="stop2332" />
      <stop
         style="stop-color:#9f4f19;stop-opacity:1.0000000;"
         offset="1.0000000"
         id="stop2344" />
    </linearGradient>
    <linearGradient
       id="linearGradient2367">
      <stop
         style="stop-color:#957d16;stop-opacity:1.0000000;"
         offset="0.0000000"
         id="stop2369" />
      <stop
         style="stop-color:#927b16;stop-opacity:1.0000000;"
         offset="1.0000000"
         id="stop2371" />
    </linearGradient>
    <linearGradient
       id="linearGradient2373">
      <stop
         style="stop-color:#083e20;stop-opacity:1.0000000;"
         offset="0.0000000"
         id="stop2375" />
      <stop
         style="stop-color:#245e3e;stop-opacity:1.0000000;"
         offset="1.0000000"
         id="stop2377" />
    </linearGradient>
    <linearGradient
       id="linearGradient4516">
      <stop
         style="stop-color:#62004f;stop-opacity:1;"
         offset="0"
         id="stop4518" />
      <stop
         id="stop7294"
         offset="0.14563107"
         style="stop-color:#8d2778;stop-opacity:1;" />
      <stop
         style="stop-color:#ff00bf;stop-opacity:1;"
         offset="1"
         id="stop4520-5" />
    </linearGradient>
    <linearGradient
       id="linearGradient4526">
      <stop
         style="stop-color:#ffffff;stop-opacity:0.69902915;"
         offset="0.0000000"
         id="stop4528" />
      <stop
         style="stop-color:#ffffff;stop-opacity:0.0000000;"
         offset="1.0000000"
         id="stop4530" />
    </linearGradient>
    <linearGradient
       id="linearGradient2797">
      <stop
         id="stop2799"
         offset="0.0000000"
         style="stop-color:#000000;stop-opacity:1.0000000;" />
      <stop
         id="stop2801"
         offset="1.0000000"
         style="stop-color:#484848;stop-opacity:1.0000000;" />
    </linearGradient>
    <clipPath
       clipPathUnits="userSpaceOnUse"
       id="clipPath5234">
      <rect
         style="opacity:0;fill:#ffffff;fill-opacity:0.69868996;stroke:none"
         id="rect5236"
         width="105"
         height="81"
         x="11"
         y="27"
         rx="0.5"
         ry="0.5" />
    </clipPath>
    <clipPath
       clipPathUnits="userSpaceOnUse"
       id="clipPath3138">
      <path
         style="opacity:0.84653476;fill:url(#radialGradient3142);fill-opacity:1"
         d="m 7.5,22 c 0,-0.33984 0.2346178,-0.5 0.5,-0.5 l 103.15136,0 c 0.82158,0 1.49951,0.67932 1.5,1.5 l 0.0313,52.6 c 3e-5,0.05307 -0.008,0.997884 5e-5,1.6875 -8.14963,9.391496 -22.553285,23.8133 -31.555095,32.75853 -1.656484,1.47685 -1.151317,1.11385 -2.888706,1.45391 L 8,111.5 c -0.3227174,0 -0.5,-0.16322 -0.5,-0.5 z"
         id="path3140"
         inkscape:connector-curvature="0"
         sodipodi:nodetypes="ccssscccccc" />
    </clipPath>
    <linearGradient
       id="linearGradient4518">
      <stop
         style="stop-color:#eeecec;stop-opacity:1"
         offset="0"
         id="stop4520" />
      <stop
         id="stop5969"
         offset="0.40000001"
         style="stop-color:#f4f4f4;stop-opacity:1" />
      <stop
         style="stop-color:#f6f5f5;stop-opacity:1"
         offset="1"
         id="stop4522" />
    </linearGradient>
    <clipPath
       clipPathUnits="userSpaceOnUse"
       id="clipPath5234-9">
      <rect
         style="opacity:0;fill:#ffffff;fill-opacity:0.69868996;stroke:none"
         id="rect5236-9"
         width="105"
         height="81"
         x="11"
         y="27"
         rx="0.5"
         ry="0.5" />
    </clipPath>
    <clipPath
       clipPathUnits="userSpaceOnUse"
       id="clipPath3138-5">
      <path
         style="opacity:0.84653476;fill:url(#radialGradient3142);fill-opacity:1"
         d="m 7.5,22 c 0,-0.33984 0.2346178,-0.5 0.5,-0.5 l 103.15136,0 c 0.82158,0 1.49951,0.67932 1.5,1.5 l 0.0313,52.6 c 3e-5,0.05307 -0.008,0.997884 5e-5,1.6875 -8.14963,9.391496 -22.553285,23.8133 -31.555095,32.75853 -1.656484,1.47685 -1.151317,1.11385 -2.888706,1.45391 L 8,111.5 c -0.3227174,0 -0.5,-0.16322 -0.5,-0.5 z"
         id="path3140-0"
         inkscape:connector-curvature="0"
         sodipodi:nodetypes="ccssscccccc" />
    </clipPath>
    <clipPath
       clipPathUnits="userSpaceOnUse"
       id="clipPath6093">
      <path
         inkscape:connector-curvature="0"
         sodipodi:nodetypes="cccssccc"
         id="path6095"
         d="M 17.000001,8 17,120 l 57.5,0 c 1.675283,0 3.914297,-0.56468 7,-3.6 8.870045,-8.72523 20.24047,-19.851805 27.49904,-27.175957 C 111.4396,86.761431 112,84.752873 112,82.5 L 112,8 Z"
         style="fill:#ffffff;fill-opacity:1" />
    </clipPath>
    <clipPath
       clipPathUnits="userSpaceOnUse"
       id="clipPath5110">
      <path
         inkscape:connector-curvature="0"
         sodipodi:nodetypes="cccssccc"
         id="path5112"
         d="M 17.000001,8 17,120 l 57.5,0 c 1.675283,0 3.914297,-0.56468 7,-3.6 8.870045,-8.72523 20.24047,-19.851805 27.49904,-27.175957 C 111.4396,86.761431 112,84.752873 112,82.5 L 112,8 Z"
         style="fill:#ffffff;fill-opacity:1" />
    </clipPath>
    <linearGradient
       id="linearGradient3897">
      <stop
         style="stop-color:#ffffff;stop-opacity:1"
         offset="0"
         id="stop3899" />
      <stop
         id="stop3901"
         offset="0.52275378"
         style="stop-color:#eef4f9;stop-opacity:1" />
      <stop
         style="stop-color:#f0efef;stop-opacity:1;"
         offset="0.72337759"
         id="stop3903" />
      <stop
         style="stop-color:#e3e1e1;stop-opacity:1;"
         offset="0.89024991"
         id="stop3905" />
      <stop
         style="stop-color:#cecbcb;stop-opacity:1"
         offset="1"
         id="stop3907" />
    </linearGradient>
    <clipPath
       clipPathUnits="userSpaceOnUse"
       id="clipPath3889">
      <path
         sodipodi:nodetypes="cscscssc"
         inkscape:connector-curvature="0"
         id="path3891"
         d="m 112,82.502986 c 0,4.465301 -2.79749,6.409952 -5.27972,8.093625 -5.10854,3.46508 -14.939114,3.32536 -20.720284,3.40638 -0.081,5.781159 0.16586,15.504599 -3.29922,20.613139 -1.68367,2.48224 -5.29051,5.38687 -8.20078,5.38687 2.31803,0 4.74284,-1.33476 7.58402,-4.08481 9.14197,-8.84873 17.36714,-16.13535 25.673154,-25.297529 C 109.67612,88.503916 112,86.97878 112,82.502986 Z"
         style="fill:url(#linearGradient3893);fill-opacity:1;stroke:none" />
    </clipPath>
    <clipPath
       clipPathUnits="userSpaceOnUse"
       id="clipPath4759-4">
      <rect
         style="opacity:0.37656902;fill:#ffffff;fill-opacity:1;stroke:none"
         id="rect4761-3"
         width="72"
         height="53"
         x="12"
         y="25" />
    </clipPath>
  </defs>
  <sodipodi:namedview
     id="base"
     pagecolor="#ffffff"
     bordercolor="#666666"
     borderopacity="1.0"
     inkscape:pageopacity="0.0"
     inkscape:pageshadow="2"
     inkscape:zoom="0.45254836"
     inkscape:cx="578.58499"
     inkscape:cy="501.23975"
     inkscape:document-units="px"
     inkscape:current-layer="layer6"
     showgrid="false"
     showguides="true"
     inkscape:guide-bbox="true"
     fit-margin-top="0"
     fit-margin-left="0"
     fit-margin-right="0"
     fit-margin-bottom="0"
     inkscape:window-width="1366"
     inkscape:window-height="709"
     inkscape:window-x="-4"
     inkscape:window-y="0"
     inkscape:window-maximized="1"
     inkscape:showpageshadow="false"
     borderlayer="true"
     showborder="false"
     inkscape:snap-global="true"
     inkscape:snap-page="false"
     inkscape:snap-bbox="true"
     inkscape:snap-nodes="false"
     inkscape:snap-others="false"
     inkscape:snap-to-guides="true"
     inkscape:bbox-paths="false"
     inkscape:object-paths="false"
     inkscape:snap-bbox-midpoints="true">
    <sodipodi:guide
       orientation="0,1"
       position="-10.429825,956.71547"
       id="guide3101" />
    <sodipodi:guide
       orientation="1,0"
       position="956.5625,59.8125"
       id="guide3103" />
    <sodipodi:guide
       orientation="0,1"
       position="1246.875,315.625"
       id="guide3105" />
    <sodipodi:guide
       orientation="1,0"
       position="67.351921,64.523494"
       id="guide3107" />
    <sodipodi:guide
       orientation="0,1"
       position="961.5,67.5"
       id="guide3109" />
    <sodipodi:guide
       orientation="1,0"
       position="319.08193,67.707547"
       id="guide3111" />
    <sodipodi:guide
       orientation="1,0"
       position="511.68014,67.707547"
       id="guide3113" />
    <sodipodi:guide
       orientation="1,0"
       position="706.1875,64.734375"
       id="guide3115" />
    <sodipodi:guide
       orientation="0,1"
       position="-21.213203,1024"
       id="guide3117" />
    <sodipodi:guide
       orientation="0,1"
       position="0,0"
       id="guide3119" />
    <sodipodi:guide
       orientation="1,0"
       position="0,1042.6289"
       id="guide3121" />
    <sodipodi:guide
       orientation="0,1"
       position="-6.8942911,705"
       id="guide3123" />
    <sodipodi:guide
       orientation="1,0"
       position="1024,1037.75"
       id="guide3125" />
    <sodipodi:guide
       orientation="0,1"
       position="-27.223611,512.65241"
       id="guide3127" />
    <inkscape:grid
       type="xygrid"
       id="grid4235"
       empspacing="5"
       visible="true"
       enabled="true"
       snapvisiblegridlinesonly="true" />
    <sodipodi:guide
       orientation="1,0"
       position="511.68014,430.8932"
       id="guide4003" />
  </sodipodi:namedview>
  <metadata
     id="metadata7">
    <rdf:RDF>
      <cc:Work
         rdf:about="">
        <dc:format>image/svg+xml</dc:format>
        <dc:type
           rdf:resource="http://purl.org/dc/dcmitype/StillImage" />
        <dc:title></dc:title>
      </cc:Work>
    </rdf:RDF>
  </metadata>
  <g
     inkscape:groupmode="layer"
     id="layer5"
     inkscape:label="Background"
     style="display:inline">
    <rect
       style="color:#000000;fill:url(#linearGradient4116);fill-opacity:1;fill-rule:nonzero;stroke:none;stroke-width:2;marker:none;visibility:visible;display:inline;overflow:visible;enable-background:accumulate"
       id="rect4108"
       width="1024"
       height="1024"
       x="0"
       y="1.5099033e-14" />
  </g>
  <g
     inkscape:groupmode="layer"
     id="layer3"
     inkscape:label="Layer"
     style="display:inline">
    <g
       id="g5998">
      <path
         inkscape:connector-curvature="0"
         id="path5959"
         d="m 186.42274,580.37501 0,160.59088 -37.22703,37.22728 16.36419,0 20.86284,-20.81815 0,78.99998 149.50052,0 11.88647,0 94.61296,0 0,-56.20458 0,-18.86359 0,-59.77274 30.18245,30.11362 16.36301,0 -46.54546,-46.54543 0,-104.72728 -255.99995,0 z m 11.63637,11.63636 232.72723,0 0,81.45453 -34.90909,-34.90909 -23.27272,23.27274 -0.11658,0 -76.70459,76.5682 0,0.2269 -53.52272,-53.52273 -44.22736,44.22726 0,-137.31817 z m 40.72725,11.63635 a 29.090906,29.090906 0 0 0 -29.0909,29.09091 29.090906,29.090906 0 0 0 29.0909,29.09092 29.090906,29.090906 0 0 0 29.09091,-29.09092 29.090906,29.090906 0 0 0 -29.09091,-29.09091 z m 0,11.63636 a 17.454544,17.454544 0 0 1 17.45455,17.45455 17.454544,17.454544 0 0 1 -17.45455,17.45455 17.454544,17.454544 0 0 1 -17.45453,-17.45455 17.454544,17.454544 0 0 1 17.45453,-17.45455 z m 157.09089,39.79545 34.90909,34.8409 0,61.06821 0,3.93181 -134.97714,0 -97.75009,0 0,-9.15909 44.22749,-44.13638 0,-0.2269 53.5226,53.52269 23.27272,-23.27271 0.11657,0 76.72791,-76.5682 z m -197.81814,111.47729 232.72723,0 0,58.18181 -81.45454,0 -11.63638,0 -139.63631,0 0,-46.38638 0,-11.79543 z"
         style="opacity:1;fill:#fcbcbe;fill-opacity:1;stroke:none" />
      <path
         style="opacity:1;fill:#fcbcbe;fill-opacity:1;stroke:none"
         d="m 186.42274,191.00001 0,160.59088 -37.22703,37.22728 16.36419,0 20.86284,-20.81815 0,78.99998 149.50052,0 11.88647,0 94.61296,0 0,-56.20458 0,-18.86359 0,-59.77274 30.18245,30.11362 16.36301,0 -46.54546,-46.54543 0,-104.72728 -255.99995,0 z m 11.63637,11.63636 232.72723,0 0,81.45453 -34.90909,-34.90909 -23.27272,23.27274 -0.11658,0 -76.70459,76.5682 0,0.2269 -53.52272,-53.52273 -44.22736,44.22726 0,-137.31817 z m 40.72725,11.63635 a 29.090906,29.090906 0 0 0 -29.0909,29.09091 29.090906,29.090906 0 0 0 29.0909,29.09092 29.090906,29.090906 0 0 0 29.09091,-29.09092 29.090906,29.090906 0 0 0 -29.09091,-29.09091 z m 0,11.63636 a 17.454544,17.454544 0 0 1 17.45455,17.45455 17.454544,17.454544 0 0 1 -17.45455,17.45455 17.454544,17.454544 0 0 1 -17.45453,-17.45455 17.454544,17.454544 0 0 1 17.45453,-17.45455 z m 157.09089,39.79545 34.90909,34.8409 0,61.06821 0,3.93181 -134.97714,0 -97.75009,0 0,-9.15909 44.22749,-44.13638 0,-0.2269 53.5226,53.52269 23.27272,-23.27271 0.11657,0 76.72791,-76.5682 z m -197.81814,111.47729 232.72723,0 0,58.18181 -81.45454,0 -11.63638,0 -139.63631,0 0,-46.38638 0,-11.79543 z"
         id="path5992"
         inkscape:connector-curvature="0" />
      <path
         inkscape:connector-curvature="0"
         id="path5994"
         d="m 573.52831,191.00001 0,160.59088 -37.22703,37.22728 16.36419,0 20.86284,-20.81815 0,78.99998 149.50052,0 11.88647,0 94.61296,0 0,-56.20458 0,-18.86359 0,-59.77274 30.18245,30.11362 16.36301,0 -46.54546,-46.54543 0,-104.72728 -255.99995,0 z m 11.63637,11.63636 232.72723,0 0,81.45453 -34.90909,-34.90909 -23.27272,23.27274 -0.11658,0 -76.70459,76.5682 0,0.2269 -53.52272,-53.52273 -44.22736,44.22726 0,-137.31817 z m 40.72725,11.63635 a 29.090906,29.090906 0 0 0 -29.0909,29.09091 29.090906,29.090906 0 0 0 29.0909,29.09092 29.090906,29.090906 0 0 0 29.09091,-29.09092 29.090906,29.090906 0 0 0 -29.09091,-29.09091 z m 0,11.63636 a 17.454544,17.454544 0 0 1 17.45455,17.45455 17.454544,17.454544 0 0 1 -17.45455,17.45455 17.454544,17.454544 0 0 1 -17.45453,-17.45455 17.454544,17.454544 0 0 1 17.45453,-17.45455 z m 157.09089,39.79545 34.90909,34.8409 0,61.06821 0,3.93181 -134.97714,0 -97.75009,0 0,-9.15909 44.22749,-44.13638 0,-0.2269 53.5226,53.52269 23.27272,-23.27271 0.11657,0 76.72791,-76.5682 z m -197.81814,111.47729 232.72723,0 0,58.18181 -81.45454,0 -11.63638,0 -139.63631,0 0,-46.38638 0,-11.79543 z"
         style="opacity:1;fill:#fcbcbe;fill-opacity:1;stroke:none" />
      <path
         style="opacity:1;fill:#fcbcbe;fill-opacity:1;stroke:none"
         d="m 573.52831,580.37501 0,160.59088 -37.22703,37.22728 16.36419,0 20.86284,-20.81815 0,78.99998 149.50052,0 11.88647,0 94.61296,0 0,-56.20458 0,-18.86359 0,-59.77274 30.18245,30.11362 16.36301,0 -46.54546,-46.54543 0,-104.72728 -255.99995,0 z m 11.63637,11.63636 232.72723,0 0,81.45453 -34.90909,-34.90909 -23.27272,23.27274 -0.11658,0 -76.70459,76.5682 0,0.2269 -53.52272,-53.52273 -44.22736,44.22726 0,-137.31817 z m 40.72725,11.63635 a 29.090906,29.090906 0 0 0 -29.0909,29.09091 29.090906,29.090906 0 0 0 29.0909,29.09092 29.090906,29.090906 0 0 0 29.09091,-29.09092 29.090906,29.090906 0 0 0 -29.09091,-29.09091 z m 0,11.63636 a 17.454544,17.454544 0 0 1 17.45455,17.45455 17.454544,17.454544 0 0 1 -17.45455,17.45455 17.454544,17.454544 0 0 1 -17.45453,-17.45455 17.454544,17.454544 0 0 1 17.45453,-17.45455 z m 157.09089,39.79545 34.90909,34.8409 0,61.06821 0,3.93181 -134.97714,0 -97.75009,0 0,-9.15909 44.22749,-44.13638 0,-0.2269 53.5226,53.52269 23.27272,-23.27271 0.11657,0 76.72791,-76.5682 z m -197.81814,111.47729 232.72723,0 0,58.18181 -81.45454,0 -11.63638,0 -139.63631,0 0,-46.38638 0,-11.79543 z"
         id="path5996"
         inkscape:connector-curvature="0" />
    </g>
    <path
       style="fill:#ffffff;fill-opacity:1"
       inkscape:connector-curvature="0"
       d="m 321.95153,118.72057 c -10.02179,0.37119 -20.78612,3.0302 -32.60311,8.10527 -105.4157,45.0419 -27.77457,148.49027 106.59316,243.09067 0.80991,-18.12818 1.31601,-35.88519 1.11354,-52.89948 C 282.42068,238.56472 215.35836,162.15391 288.42038,131.83746 c 77.02359,-31.925681 107.27501,58.46789 108.63474,185.17957 7.17736,4.88778 14.41541,9.71384 21.96395,14.66337 -2.76694,-115.32754 -28.0883,-205.78252 -87.10625,-212.46481 -3.13813,-0.37118 -6.62051,-0.55676 -9.96129,-0.43191 m 97.06754,212.89774 -13.73375,-21.77859 -17.44552,15.03488 -3.6511,22.89213 23.0132,43.3716 11.5708,-5.56842 c 77.33066,51.53825 169.69426,98.99352 256.36847,131.59947 l 25.733,14.9728 35.57271,0.86721 c 32.78898,-19.42765 13.2412,-26.6046 132.39044,-41.32974 L 734.591,501.95128 C 631.03137,461.85892 515.09446,394.48166 418.95838,331.68243 m 258.28505,184.99431 c 15.52895,1.2384 124.96688,-17.88085 173.15969,-22.52129 47.69693,-4.57836 106.28288,-9.77559 95.21146,46.15579 12.62023,-29.32674 -6.37415,-57.10667 -47.26491,-65.83045 -63.22572,-14.1687 -185.04078,30.50203 -221.10624,42.19595 m 69.8464,-13.61158 c -18.80885,6.74368 -50.54498,6.06309 -70.83512,14.29185 28.76671,14.72546 176.12924,53.82778 235.76461,42.62921 9.52926,-1.48473 35.63681,-8.72379 36.62551,-29.76 -3.10453,37.67934 -179.65534,9.89943 -201.555,-27.16106 m 39.2845,0.61751 c -15.46826,-4.94989 -95.21147,19.61292 -111.23316,13.54948 -98.05608,32.66804 -205.4559,79.68969 -292.80835,129.86707 l -25.30456,5.01164 -19.54778,34.89514 -26.23241,34.15275 29.57302,29.45059 23.13818,-37.98877 C 466.21985,651.3064 668.39586,551.44702 786.31021,503.62058 M 363.95927,712.62057 c -12.49867,7.4864 -24.43723,14.91104 -35.75823,22.08801 -26.23258,74.36863 -56.79089,124.36041 -85.99272,122.19507 45.09853,21.84035 89.02283,-44.17602 121.75095,-144.28308 M 242.20832,856.90365 c -68.79357,-40.58737 53.38942,-100.60207 85.99272,-122.19507 7.36286,-20.97446 14.29042,-43.74277 20.84682,-67.99613 -102.6959,63.91245 -167.03516,130.17617 -132.57597,173.98101 8.2909,10.57971 17.07435,15.52959 25.79712,16.14811 M 349.04786,666.65038 c 10.64277,-6.6202 21.83897,-13.11655 33.28496,-19.67467 20.22945,-81.60802 33.6527,-175.46606 36.43988,-261.46653 -7.79816,-5.19721 -15.40738,-10.45619 -22.83112,-15.71516 -4.32932,96.82784 -22.33152,206.15368 -46.8296,296.85636"
       id="path26" />
  </g>
  <g
     inkscape:label="BORDER"
     inkscape:groupmode="layer"
     id="layer1"
     transform="translate(50.25,211.52169)"
     style="display:none"
     sodipodi:insensitive="true">
    <path
       inkscape:connector-curvature="0"
       d="m 301.95446,-211.52169 319.59108,0 c 101.4156,0 152.12339,0 206.7084,17.25959 59.59748,21.69173 106.54481,68.63899 128.23654,128.236542 C 973.75,-11.44076 973.75,39.267072 973.75,140.68273 l 0,319.59116 c 0,101.41566 0,152.12349 -17.25952,206.70829 -21.69173,59.59758 -68.63906,106.54477 -128.23654,128.23654 -54.58501,17.25959 -105.2928,17.25959 -206.7084,17.25959 l -319.59108,0 c -101.4156,0 -152.12339,0 -206.708396,-17.25959 C 35.648581,773.52695 -11.298747,726.57976 -32.99048,666.98218 -50.25,612.39738 -50.25,561.68955 -50.25,460.27389 l 0,-319.59116 c 0,-101.415658 0,-152.12349 17.25952,-206.708254 21.691733,-59.597546 68.639061,-106.544846 128.236544,-128.236576 54.585006,-17.25959 105.292796,-17.25959 206.708396,-17.25959 l 0,0"
       id="path5"
       style="fill:none;stroke:#000000;stroke-opacity:1" />
  </g>
  <g
     inkscape:groupmode="layer"
     id="layer6"
     inkscape:label="MASK"
     style="display:none"
     sodipodi:insensitive="true">
    <path
       style="color:#000000;display:inline;overflow:visible;visibility:visible;fill:#ffffff;fill-opacity:1;fill-rule:nonzero;stroke:none;stroke-width:2;marker:none;enable-background:accumulate"
       d="m -0.03515625,708.40625 c 0.05564213,38.75762 0.61632351,71.02215 3.48917125,100.18549 0.8757813,8.89038 2.0231286,17.50673 3.364698,25.91301 2.7291509,17.10087 6.251639,30.63186 10.624705,44.6288 0.983104,3.14664 2.343873,6.00913 3.546782,8.89844 4.954414,11.90016 10.441772,22.62502 16.75229,32.23106 7.482354,11.38984 16.590926,23.44234 26.690428,33.79613 11.282296,11.56636 22.163363,20.60638 34.238258,28.7856 7.753914,5.2523 15.167714,9.80978 23.655414,13.91931 3.34329,1.61873 6.78353,3.25751 10.45545,4.87471 6.01057,2.6472 12.64725,5.2405 20.38236,7.4312 16.33865,4.6274 37.83594,9.5058 66.67436,11.7859 26.04947,2.0596 58.07248,3.2184 99.20801,3.1754 l -319.08192625,0 z"
       id="path4146"
       inkscape:connector-curvature="0"
       sodipodi:nodetypes="csssssssssssccc" />
    <path
       style="color:#000000;display:inline;overflow:visible;visibility:visible;fill:#ffffff;fill-opacity:1;fill-rule:nonzero;stroke:none;stroke-width:2;marker:none;enable-background:accumulate"
       d="m 1024,708.375 c -0.028,33.52476 -0.3641,57.51886 -2.1872,86.13032 -2.1429,33.63123 -7.6767,62.03085 -16.1313,85.82727 -5.1582,14.5187 -11.40374,27.32387 -18.62968,38.55822 -10.39312,16.15845 -22.65083,31.16786 -36.89519,44.46448 -6.86448,6.40775 -13.96935,11.81612 -21.91877,17.50161 -10.37402,7.41958 -20.2254,13.06198 -32.1818,18.6383 -10.69022,4.9858 -23.165,9.4996 -39.90567,13.451 -11.58454,2.7344 -25.21186,5.3376 -41.70422,7.0737 -27.23282,2.8667 -62.17789,3.4121 -108.25867,3.9801 L 1024,1024 Z"
       id="path4146-5"
       inkscape:connector-curvature="0"
       sodipodi:nodetypes="cssssssssccc" />
    <path
       style="color:#000000;display:inline;overflow:visible;visibility:visible;fill:#ffffff;fill-opacity:1;fill-rule:nonzero;stroke:none;stroke-width:2;marker:none;enable-background:accumulate"
       d="m 1023.9571,318.26274 c 0.1837,-39.14081 -0.2997,-73.55855 -3.476,-103.94061 -1.4113,-13.49969 -3.8539,-26.31006 -5.9548,-38.18792 -3.6187,-20.45841 -10.1174,-38.44655 -17.2973,-52.70888 -2.12747,-4.22606 -3.90726,-7.55456 -5.77779,-10.81658 -1.49793,-2.61224 -3.05404,-5.18185 -4.89348,-8.13563 -1.96035,-3.14791 -3.87346,-6.195884 -5.993,-9.197124 C 974.88453,87.232938 968.40279,79.35023 961.65509,72.082687 951.58996,61.242143 940.4011,51.100793 927.77306,42.698049 909.73264,30.693887 894.47219,21.390417 866.08729,13.614807 853.18652,10.080839 837.40303,6.7460486 817.42751,4.3881848 790.09127,1.1614792 754.65731,0.08073128 706.1875,0 L 1024,0 Z"
       id="path4146-5-3"
       inkscape:connector-curvature="0"
       sodipodi:nodetypes="cssssssssssccc" />
    <path
       style="color:#000000;display:inline;overflow:visible;visibility:visible;fill:#ffffff;fill-opacity:1;fill-rule:nonzero;stroke:none;stroke-width:2;marker:none;enable-background:accumulate"
       d="M 0,318.48 C 0.04438432,264.21497 1.9515494,215.42652 8.7981727,178.4577 14.754939,146.29372 24.640519,123.97857 37.889606,103.37989 53.29125,79.434582 73.01483,58.195063 97.250401,42.030991 111.80438,32.324119 124.48551,25.310001 143.39137,18.055461 153.25339,14.271217 164.74156,11.469151 178.08885,8.8727346 208.3231,2.9913388 250.69975,-0.29260813 319.08193,0 L 0,0 Z"
       id="path4146-5-3-7"
       inkscape:connector-curvature="0"
       sodipodi:nodetypes="csssssccc" />
  </g>
  <g
     inkscape:groupmode="layer"
     id="layer4"
     inkscape:label="FULL MASK to BG"
     style="display:none">
    <g
       id="g3108"
       transform="matrix(0.5649724,0,0,0.5649724,445.54508,-1009.2323)"
       style="fill:#ffffff">
      <path
         style="fill:#ffffff;fill-opacity:1"
         d="m -255.18484,3598.5738 c -65.89075,-0.4253 -133.31625,-3.6429 -171.28383,-8.1738 -35.62761,-4.2516 -75.24646,-12.6237 -101.97363,-21.5486 -19.91256,-6.6493 -47.54459,-19.4411 -66.12352,-30.6108 -37.44793,-22.5137 -72.20796,-52.2487 -98.54251,-84.2969 -24.29731,-29.5689 -41.20817,-56.8511 -55.47181,-89.4924 -6.61929,-15.1478 -8.38704,-19.8689 -11.92879,-31.8579 -16.20259,-54.8465 -23.54268,-107.7838 -26.58122,-191.706 -1.42838,-39.4507 -1.67596,-120.9647 -1.45114,-477.7704 0.16145,-256.2384 0.41117,-371.6315 0.83443,-385.5878 4.03548,-133.0627 14.45033,-200.8155 39.80624,-258.9554 22.87778,-52.4577 63.32922,-104.9173 108.81811,-141.1212 12.25925,-9.757 31.66981,-22.9097 46.90669,-31.7844 24.79601,-14.4423 54.99637,-27.5472 78.82329,-34.2039 41.36425,-11.5562 93.35603,-18.869 158.31851,-22.2681 28.5354,-1.493 42.80966,-1.8693 92.94472,-2.45 66.71195,-0.7727 774.97059,-0.3507 803.30789,0.4786 74.58713,2.1828 111.22328,5.1416 152.96045,12.3533 34.90069,6.0305 66.10255,14.5431 92.14805,25.1403 28.90007,11.7586 67.93807,35.6951 94.27249,57.8041 24.08118,20.2172 52.39634,51.696 69.50417,77.2697 27.40876,40.9722 44.92544,81.5642 54.48975,126.2709 2.0427,9.5481 7.5352,40.5742 9.5433,53.9079 4.7447,31.5043 7.3924,66.4897 8.9033,117.6415 0.8272,28.0023 1.2273,742.0895 0.4567,814.9924 -0.6825,64.5731 -1.8558,98.6886 -4.564,132.7029 -5.9213,74.3703 -21.87168,136.2374 -47.80384,185.4176 -7.83137,14.852 -18.80155,31.9295 -30.54535,47.5505 -23.00313,30.5976 -46.50391,54.389 -74.58963,75.5123 -48.63111,36.5753 -94.65909,56.7768 -158.32303,69.4872 -51.86283,10.3544 -93.05381,13.1537 -222.7503,15.1381 -27.97184,0.4279 -676.86617,0.5685 -740.10549,0.1603 z"
         id="path3124"
         inkscape:connector-curvature="0" />
      <path
         style="fill:#ffffff;fill-opacity:1"
         d="m -255.18484,3598.5738 c -65.89075,-0.4253 -133.31625,-3.6429 -171.28383,-8.1738 -35.62761,-4.2516 -75.24646,-12.6237 -101.97363,-21.5486 -19.91256,-6.6493 -47.54459,-19.4411 -66.12352,-30.6108 -37.44793,-22.5137 -72.20796,-52.2487 -98.54251,-84.2969 -24.29731,-29.5689 -41.20817,-56.8511 -55.47181,-89.4924 -6.61929,-15.1478 -8.38704,-19.8689 -11.92879,-31.8579 -16.20259,-54.8465 -23.54268,-107.7838 -26.58122,-191.706 -1.42838,-39.4507 -1.67596,-120.9647 -1.45114,-477.7704 0.16145,-256.2384 0.41117,-371.6315 0.83443,-385.5878 4.03548,-133.0627 14.45033,-200.8155 39.80624,-258.9554 22.87778,-52.4577 63.32922,-104.9173 108.81811,-141.1212 12.25925,-9.757 31.66981,-22.9097 46.90669,-31.7844 24.79601,-14.4423 54.99637,-27.5472 78.82329,-34.2039 41.36425,-11.5562 93.35603,-18.869 158.31851,-22.2681 28.5354,-1.493 42.80966,-1.8693 92.94472,-2.45 66.71195,-0.7727 774.97059,-0.3507 803.30789,0.4786 74.58713,2.1828 111.22328,5.1416 152.96045,12.3533 34.90069,6.0305 66.10255,14.5431 92.14805,25.1403 28.90007,11.7586 67.93807,35.6951 94.27249,57.8041 24.08118,20.2172 52.39634,51.696 69.50417,77.2697 27.40876,40.9722 44.92544,81.5642 54.48975,126.2709 2.0427,9.5481 7.5352,40.5742 9.5433,53.9079 4.7447,31.5043 7.3924,66.4897 8.9033,117.6415 0.8272,28.0023 1.2273,742.0895 0.4567,814.9924 -0.6825,64.5731 -1.8558,98.6886 -4.564,132.7029 -5.9213,74.3703 -21.87168,136.2374 -47.80384,185.4176 -7.83137,14.852 -18.80155,31.9295 -30.54535,47.5505 -23.00313,30.5976 -46.50391,54.389 -74.58963,75.5123 -48.63111,36.5753 -94.65909,56.7768 -158.32303,69.4872 -51.86283,10.3544 -93.05381,13.1537 -222.7503,15.1381 -27.97184,0.4279 -676.86617,0.5685 -740.10549,0.1603 z"
         id="path3122"
         inkscape:connector-curvature="0" />
      <path
         style="fill:#ffffff;fill-opacity:1"
         d="m -255.18484,3598.5738 c -65.89075,-0.4253 -133.31625,-3.6429 -171.28383,-8.1738 -35.62761,-4.2516 -75.24646,-12.6237 -101.97363,-21.5486 -19.91256,-6.6493 -47.54459,-19.4411 -66.12352,-30.6108 -37.44793,-22.5137 -72.20796,-52.2487 -98.54251,-84.2969 -24.29731,-29.5689 -41.20817,-56.8511 -55.47181,-89.4924 -6.61929,-15.1478 -8.38704,-19.8689 -11.92879,-31.8579 -16.20259,-54.8465 -23.54268,-107.7838 -26.58122,-191.706 -1.42838,-39.4507 -1.67596,-120.9647 -1.45114,-477.7704 0.16145,-256.2384 0.41117,-371.6315 0.83443,-385.5878 4.03548,-133.0627 14.45033,-200.8155 39.80624,-258.9554 22.87778,-52.4577 63.32922,-104.9173 108.81811,-141.1212 12.25925,-9.757 31.66981,-22.9097 46.90669,-31.7844 24.79601,-14.4423 54.99637,-27.5472 78.82329,-34.2039 41.36425,-11.5562 93.35603,-18.869 158.31851,-22.2681 28.5354,-1.493 42.80966,-1.8693 92.94472,-2.45 66.71195,-0.7727 774.97059,-0.3507 803.30789,0.4786 74.58713,2.1828 111.22328,5.1416 152.96045,12.3533 34.90069,6.0305 66.10255,14.5431 92.14805,25.1403 28.90007,11.7586 67.93807,35.6951 94.27249,57.8041 24.08118,20.2172 52.39634,51.696 69.50417,77.2697 27.40876,40.9722 44.92544,81.5642 54.48975,126.2709 2.0427,9.5481 7.5352,40.5742 9.5433,53.9079 4.7447,31.5043 7.3924,66.4897 8.9033,117.6415 0.8272,28.0023 1.2273,742.0895 0.4567,814.9924 -0.6825,64.5731 -1.8558,98.6886 -4.564,132.7029 -5.9213,74.3703 -21.87168,136.2374 -47.80384,185.4176 -7.83137,14.852 -18.80155,31.9295 -30.54535,47.5505 -23.00313,30.5976 -46.50391,54.389 -74.58963,75.5123 -48.63111,36.5753 -94.65909,56.7768 -158.32303,69.4872 -51.86283,10.3544 -93.05381,13.1537 -222.7503,15.1381 -27.97184,0.4279 -676.86617,0.5685 -740.10549,0.1603 z"
         id="path3120"
         inkscape:connector-curvature="0" />
      <path
         style="fill:#ffffff;fill-opacity:1"
         d="m -255.18484,3598.5738 c -65.89075,-0.4253 -133.31625,-3.6429 -171.28383,-8.1738 -35.62761,-4.2516 -75.24646,-12.6237 -101.97363,-21.5486 -19.91256,-6.6493 -47.54459,-19.4411 -66.12352,-30.6108 -37.44793,-22.5137 -72.20796,-52.2487 -98.54251,-84.2969 -24.29731,-29.5689 -41.20817,-56.8511 -55.47181,-89.4924 -6.61929,-15.1478 -8.38704,-19.8689 -11.92879,-31.8579 -16.20259,-54.8465 -23.54268,-107.7838 -26.58122,-191.706 -1.42838,-39.4507 -1.67596,-120.9647 -1.45114,-477.7704 0.16145,-256.2384 0.41117,-371.6315 0.83443,-385.5878 4.03548,-133.0627 14.45033,-200.8155 39.80624,-258.9554 22.87778,-52.4577 63.32922,-104.9173 108.81811,-141.1212 12.25925,-9.757 31.66981,-22.9097 46.90669,-31.7844 24.79601,-14.4423 54.99637,-27.5472 78.82329,-34.2039 41.36425,-11.5562 93.35603,-18.869 158.31851,-22.2681 28.5354,-1.493 42.80966,-1.8693 92.94472,-2.45 66.71195,-0.7727 774.97059,-0.3507 803.30789,0.4786 74.58713,2.1828 111.22328,5.1416 152.96045,12.3533 34.90069,6.0305 66.10255,14.5431 92.14805,25.1403 28.90007,11.7586 67.93807,35.6951 94.27249,57.8041 24.08118,20.2172 52.39634,51.696 69.50417,77.2697 27.40876,40.9722 44.92544,81.5642 54.48975,126.2709 2.0427,9.5481 7.5352,40.5742 9.5433,53.9079 4.7447,31.5043 7.3924,66.4897 8.9033,117.6415 0.8272,28.0023 1.2273,742.0895 0.4567,814.9924 -0.6825,64.5731 -1.8558,98.6886 -4.564,132.7029 -5.9213,74.3703 -21.87168,136.2374 -47.80384,185.4176 -7.83137,14.852 -18.80155,31.9295 -30.54535,47.5505 -23.00313,30.5976 -46.50391,54.389 -74.58963,75.5123 -48.63111,36.5753 -94.65909,56.7768 -158.32303,69.4872 -51.86283,10.3544 -93.05381,13.1537 -222.7503,15.1381 -27.97184,0.4279 -676.86617,0.5685 -740.10549,0.1603 z"
         id="path3118"
         inkscape:connector-curvature="0" />
      <path
         style="fill:#ffffff;fill-opacity:1"
         d="m -255.18484,3598.5738 c -65.89075,-0.4253 -133.31625,-3.6429 -171.28383,-8.1738 -35.62761,-4.2516 -75.24646,-12.6237 -101.97363,-21.5486 -19.91256,-6.6493 -47.54459,-19.4411 -66.12352,-30.6108 -37.44793,-22.5137 -72.20796,-52.2487 -98.54251,-84.2969 -24.29731,-29.5689 -41.20817,-56.8511 -55.47181,-89.4924 -6.61929,-15.1478 -8.38704,-19.8689 -11.92879,-31.8579 -16.20259,-54.8465 -23.54268,-107.7838 -26.58122,-191.706 -1.42838,-39.4507 -1.67596,-120.9647 -1.45114,-477.7704 0.16145,-256.2384 0.41117,-371.6315 0.83443,-385.5878 4.03548,-133.0627 14.45033,-200.8155 39.80624,-258.9554 22.87778,-52.4577 63.32922,-104.9173 108.81811,-141.1212 12.25925,-9.757 31.66981,-22.9097 46.90669,-31.7844 24.79601,-14.4423 54.99637,-27.5472 78.82329,-34.2039 41.36425,-11.5562 93.35603,-18.869 158.31851,-22.2681 28.5354,-1.493 42.80966,-1.8693 92.94472,-2.45 66.71195,-0.7727 774.97059,-0.3507 803.30789,0.4786 74.58713,2.1828 111.22328,5.1416 152.96045,12.3533 34.90069,6.0305 66.10255,14.5431 92.14805,25.1403 28.90007,11.7586 67.93807,35.6951 94.27249,57.8041 24.08118,20.2172 52.39634,51.696 69.50417,77.2697 27.40876,40.9722 44.92544,81.5642 54.48975,126.2709 2.0427,9.5481 7.5352,40.5742 9.5433,53.9079 4.7447,31.5043 7.3924,66.4897 8.9033,117.6415 0.8272,28.0023 1.2273,742.0895 0.4567,814.9924 -0.6825,64.5731 -1.8558,98.6886 -4.564,132.7029 -5.9213,74.3703 -21.87168,136.2374 -47.80384,185.4176 -7.83137,14.852 -18.80155,31.9295 -30.54535,47.5505 -23.00313,30.5976 -46.50391,54.389 -74.58963,75.5123 -48.63111,36.5753 -94.65909,56.7768 -158.32303,69.4872 -51.86283,10.3544 -93.05381,13.1537 -222.7503,15.1381 -27.97184,0.4279 -676.86617,0.5685 -740.10549,0.1603 z"
         id="path3116"
         inkscape:connector-curvature="0" />
      <path
         style="fill:#ffffff;fill-opacity:1"
         d="m -255.18484,3598.5738 c -65.89075,-0.4253 -133.31625,-3.6429 -171.28383,-8.1738 -35.62761,-4.2516 -75.24646,-12.6237 -101.97363,-21.5486 -19.91256,-6.6493 -47.54459,-19.4411 -66.12352,-30.6108 -37.44793,-22.5137 -72.20796,-52.2487 -98.54251,-84.2969 -24.29731,-29.5689 -41.20817,-56.8511 -55.47181,-89.4924 -6.61929,-15.1478 -8.38704,-19.8689 -11.92879,-31.8579 -16.20259,-54.8465 -23.54268,-107.7838 -26.58122,-191.706 -1.42838,-39.4507 -1.67596,-120.9647 -1.45114,-477.7704 0.16145,-256.2384 0.41117,-371.6315 0.83443,-385.5878 4.03548,-133.0627 14.45033,-200.8155 39.80624,-258.9554 22.87778,-52.4577 63.32922,-104.9173 108.81811,-141.1212 12.25925,-9.757 31.66981,-22.9097 46.90669,-31.7844 24.79601,-14.4423 54.99637,-27.5472 78.82329,-34.2039 41.36425,-11.5562 93.35603,-18.869 158.31851,-22.2681 28.5354,-1.493 42.80966,-1.8693 92.94472,-2.45 66.71195,-0.7727 774.97059,-0.3507 803.30789,0.4786 74.58713,2.1828 111.22328,5.1416 152.96045,12.3533 34.90069,6.0305 66.10255,14.5431 92.14805,25.1403 28.90007,11.7586 67.93807,35.6951 94.27249,57.8041 24.08118,20.2172 52.39634,51.696 69.50417,77.2697 27.40876,40.9722 44.92544,81.5642 54.48975,126.2709 2.0427,9.5481 7.5352,40.5742 9.5433,53.9079 4.7447,31.5043 7.3924,66.4897 8.9033,117.6415 0.8272,28.0023 1.2273,742.0895 0.4567,814.9924 -0.6825,64.5731 -1.8558,98.6886 -4.564,132.7029 -5.9213,74.3703 -21.87168,136.2374 -47.80384,185.4176 -7.83137,14.852 -18.80155,31.9295 -30.54535,47.5505 -23.00313,30.5976 -46.50391,54.389 -74.58963,75.5123 -48.63111,36.5753 -94.65909,56.7768 -158.32303,69.4872 -51.86283,10.3544 -93.05381,13.1537 -222.7503,15.1381 -27.97184,0.4279 -676.86617,0.5685 -740.10549,0.1603 z"
         id="path3114"
         inkscape:connector-curvature="0" />
      <path
         style="fill:#ffffff;fill-opacity:1"
         d="m -255.18484,3598.5738 c -65.89075,-0.4253 -133.31625,-3.6429 -171.28383,-8.1738 -35.62761,-4.2516 -75.24646,-12.6237 -101.97363,-21.5486 -19.91256,-6.6493 -47.54459,-19.4411 -66.12352,-30.6108 -37.44793,-22.5137 -72.20796,-52.2487 -98.54251,-84.2969 -24.29731,-29.5689 -41.20817,-56.8511 -55.47181,-89.4924 -6.61929,-15.1478 -8.38704,-19.8689 -11.92879,-31.8579 -16.20259,-54.8465 -23.54268,-107.7838 -26.58122,-191.706 -1.42838,-39.4507 -1.67596,-120.9647 -1.45114,-477.7704 0.16145,-256.2384 0.41117,-371.6315 0.83443,-385.5878 4.03548,-133.0627 14.45033,-200.8155 39.80624,-258.9554 22.87778,-52.4577 63.32922,-104.9173 108.81811,-141.1212 12.25925,-9.757 31.66981,-22.9097 46.90669,-31.7844 24.79601,-14.4423 54.99637,-27.5472 78.82329,-34.2039 41.36425,-11.5562 93.35603,-18.869 158.31851,-22.2681 28.5354,-1.493 42.80966,-1.8693 92.94472,-2.45 66.71195,-0.7727 774.97059,-0.3507 803.30789,0.4786 74.58713,2.1828 111.22328,5.1416 152.96045,12.3533 34.90069,6.0305 66.10255,14.5431 92.14805,25.1403 28.90007,11.7586 67.93807,35.6951 94.27249,57.8041 24.08118,20.2172 52.39634,51.696 69.50417,77.2697 27.40876,40.9722 44.92544,81.5642 54.48975,126.2709 2.0427,9.5481 7.5352,40.5742 9.5433,53.9079 4.7447,31.5043 7.3924,66.4897 8.9033,117.6415 0.8272,28.0023 1.2273,742.0895 0.4567,814.9924 -0.6825,64.5731 -1.8558,98.6886 -4.564,132.7029 -5.9213,74.3703 -21.87168,136.2374 -47.80384,185.4176 -7.83137,14.852 -18.80155,31.9295 -30.54535,47.5505 -23.00313,30.5976 -46.50391,54.389 -74.58963,75.5123 -48.63111,36.5753 -94.65909,56.7768 -158.32303,69.4872 -51.86283,10.3544 -93.05381,13.1537 -222.7503,15.1381 -27.97184,0.4279 -676.86617,0.5685 -740.10549,0.1603 z"
         id="path3112"
         inkscape:connector-curvature="0" />
      <path
         style="fill:#ffffff;fill-opacity:1"
         d="m -255.18484,3598.5738 c -65.89075,-0.4253 -133.31625,-3.6429 -171.28383,-8.1738 -35.62761,-4.2516 -75.24646,-12.6237 -101.97363,-21.5486 -19.91256,-6.6493 -47.54459,-19.4411 -66.12352,-30.6108 -37.44793,-22.5137 -72.20796,-52.2487 -98.54251,-84.2969 -24.29731,-29.5689 -41.20817,-56.8511 -55.47181,-89.4924 -6.61929,-15.1478 -8.38704,-19.8689 -11.92879,-31.8579 -16.20259,-54.8465 -23.54268,-107.7838 -26.58122,-191.706 -1.42838,-39.4507 -1.67596,-120.9647 -1.45114,-477.7704 0.16145,-256.2384 0.41117,-371.6315 0.83443,-385.5878 4.03548,-133.0627 14.45033,-200.8155 39.80624,-258.9554 22.87778,-52.4577 63.32922,-104.9173 108.81811,-141.1212 12.25925,-9.757 31.66981,-22.9097 46.90669,-31.7844 24.79601,-14.4423 54.99637,-27.5472 78.82329,-34.2039 41.36425,-11.5562 93.35603,-18.869 158.31851,-22.2681 28.5354,-1.493 42.80966,-1.8693 92.94472,-2.45 66.71195,-0.7727 774.97059,-0.3507 803.30789,0.4786 74.58713,2.1828 111.22328,5.1416 152.96045,12.3533 34.90069,6.0305 66.10255,14.5431 92.14805,25.1403 28.90007,11.7586 67.93807,35.6951 94.27249,57.8041 24.08118,20.2172 52.39634,51.696 69.50417,77.2697 27.40876,40.9722 44.92544,81.5642 54.48975,126.2709 2.0427,9.5481 7.5352,40.5742 9.5433,53.9079 4.7447,31.5043 7.3924,66.4897 8.9033,117.6415 0.8272,28.0023 1.2273,742.0895 0.4567,814.9924 -0.6825,64.5731 -1.8558,98.6886 -4.564,132.7029 -5.9213,74.3703 -21.87168,136.2374 -47.80384,185.4176 -7.83137,14.852 -18.80155,31.9295 -30.54535,47.5505 -23.00313,30.5976 -46.50391,54.389 -74.58963,75.5123 -48.63111,36.5753 -94.65909,56.7768 -158.32303,69.4872 -51.86283,10.3544 -93.05381,13.1537 -222.7503,15.1381 -27.97184,0.4279 -676.86617,0.5685 -740.10549,0.1603 z"
         id="path3110"
         inkscape:connector-curvature="0" />
    </g>
  </g>
  <g
     inkscape:groupmode="layer"
     id="layer2"
     inkscape:label="GUIDES"
     style="display:none"
     transform="translate(0,-2.2054443)"
     sodipodi:insensitive="true">
    <path
       style="color:#000000;display:inline;overflow:visible;visibility:visible;fill:none;stroke:#000000;stroke-width:2;stroke-linecap:butt;stroke-linejoin:miter;stroke-miterlimit:4;stroke-dasharray:none;stroke-dashoffset:0;stroke-opacity:1;marker:none;enable-background:accumulate"
       d="m 0.99801512,321.03518 0,386.27669"
       id="path4024"
       inkscape:connector-curvature="0" />
    <circle
       style="color:#000000;display:inline;overflow:visible;visibility:visible;fill:none;stroke:#000000;stroke-width:1.00571477;stroke-linecap:butt;stroke-linejoin:miter;stroke-miterlimit:4;stroke-dasharray:none;stroke-dashoffset:0;stroke-opacity:1;marker:none;enable-background:accumulate"
       id="path3129"
       transform="matrix(1.988799,0,0,1.988471,-407.91018,-80.585593)"
       cx="462.32144"
       cy="298.86218"
       r="138" />
    <circle
       style="color:#000000;display:inline;overflow:visible;visibility:visible;fill:none;stroke:#000000;stroke-width:0.62086099;stroke-linecap:butt;stroke-linejoin:miter;stroke-miterlimit:4;stroke-dasharray:none;stroke-dashoffset:0;stroke-opacity:1;marker:none;enable-background:accumulate"
       id="path3129-9"
       transform="matrix(3.2215081,0,0,3.2211587,-977.38931,-448.55899)"
       cx="462.32144"
       cy="298.86218"
       r="138" />
    <path
       style="color:#000000;display:inline;overflow:visible;visibility:visible;fill:none;stroke:#000000;stroke-width:2;stroke-linecap:butt;stroke-linejoin:miter;stroke-miterlimit:4;stroke-dasharray:none;stroke-dashoffset:0;stroke-opacity:1;marker:none;enable-background:accumulate"
       d="M 67.351921,69.489974 956.5625,958.70544"
       id="path4011"
       inkscape:connector-curvature="0"
       sodipodi:nodetypes="cc" />
    <path
       style="color:#000000;display:inline;overflow:visible;visibility:visible;fill:none;stroke:#000000;stroke-width:2;stroke-linecap:butt;stroke-linejoin:miter;stroke-miterlimit:4;stroke-dasharray:none;stroke-dashoffset:0;stroke-opacity:1;marker:none;enable-background:accumulate"
       d="m 0.99801467,707.31189 1022.00298533,0"
       id="path4028"
       inkscape:connector-curvature="0" />
    <path
       style="color:#000000;display:inline;overflow:visible;visibility:visible;fill:none;stroke:#000000;stroke-width:2;stroke-linecap:butt;stroke-linejoin:miter;stroke-miterlimit:4;stroke-dasharray:none;stroke-dashoffset:0;stroke-opacity:1;marker:none;enable-background:accumulate"
       d="m 0.99801467,513.69318 1022.00298533,0"
       id="path4030"
       inkscape:connector-curvature="0" />
    <path
       style="color:#000000;display:inline;overflow:visible;visibility:visible;fill:none;stroke:#000000;stroke-width:2;stroke-linecap:butt;stroke-linejoin:miter;stroke-miterlimit:4;stroke-dasharray:none;stroke-dashoffset:0;stroke-opacity:1;marker:none;enable-background:accumulate"
       d="m 0.99801467,321.0352 1022.00298533,0"
       id="path4032"
       inkscape:connector-curvature="0" />
    <path
       style="color:#000000;display:inline;overflow:visible;visibility:visible;fill:none;stroke:#000000;stroke-width:2;stroke-linecap:butt;stroke-linejoin:miter;stroke-miterlimit:4;stroke-dasharray:none;stroke-dashoffset:0;stroke-opacity:1;marker:none;enable-background:accumulate"
       d="m 319.08193,1026.2054 0,-1023.9999557"
       id="path4034"
       inkscape:connector-curvature="0"
       sodipodi:nodetypes="cc" />
    <path
       style="color:#000000;display:inline;overflow:visible;visibility:visible;fill:none;stroke:#000000;stroke-width:2;stroke-linecap:butt;stroke-linejoin:miter;stroke-miterlimit:4;stroke-dasharray:none;stroke-dashoffset:0;stroke-opacity:1;marker:none;enable-background:accumulate"
       d="m 511.68014,2.2054443 0,1023.9999557"
       id="path4036"
       inkscape:connector-curvature="0"
       sodipodi:nodetypes="cc" />
    <path
       style="color:#000000;display:inline;overflow:visible;visibility:visible;fill:none;stroke:#000000;stroke-width:2;stroke-linecap:butt;stroke-linejoin:miter;stroke-miterlimit:4;stroke-dasharray:none;stroke-dashoffset:0;stroke-opacity:1;marker:none;enable-background:accumulate"
       d="m 706.1875,1026.2054 0,-1023.9999557"
       id="path4038"
       inkscape:connector-curvature="0"
       sodipodi:nodetypes="cc" />
    <path
       style="color:#000000;display:inline;overflow:visible;visibility:visible;fill:none;stroke:#000000;stroke-width:2;stroke-linecap:butt;stroke-linejoin:miter;stroke-miterlimit:4;stroke-dasharray:none;stroke-dashoffset:0;stroke-opacity:1;marker:none;enable-background:accumulate"
       d="M 67.351921,958.70544 956.5625,69.489974"
       id="path4001"
       inkscape:connector-curvature="0"
       sodipodi:nodetypes="cc" />
    <path
       style="color:#000000;display:inline;overflow:visible;visibility:visible;fill:none;stroke:#000000;stroke-width:2;stroke-linecap:butt;stroke-linejoin:miter;stroke-miterlimit:4;stroke-dasharray:none;stroke-dashoffset:0;stroke-opacity:1;marker:none;enable-background:accumulate"
       d="m 956.5625,69.489974 0,889.215466"
       id="path4003"
       inkscape:connector-curvature="0"
       sodipodi:nodetypes="cc" />
    <path
       style="color:#000000;display:inline;overflow:visible;visibility:visible;fill:none;stroke:#000000;stroke-width:2;stroke-linecap:butt;stroke-linejoin:miter;stroke-miterlimit:4;stroke-dasharray:none;stroke-dashoffset:0;stroke-opacity:1;marker:none;enable-background:accumulate"
       d="m 67.351921,69.489974 889.210579,0"
       id="path4009"
       inkscape:connector-curvature="0"
       sodipodi:nodetypes="cc" />
    <path
       style="color:#000000;display:inline;overflow:visible;visibility:visible;fill:none;stroke:#000000;stroke-width:2;stroke-linecap:butt;stroke-linejoin:miter;stroke-miterlimit:4;stroke-dasharray:none;stroke-dashoffset:0;stroke-opacity:1;marker:none;enable-background:accumulate"
       d="m 67.351921,958.70544 0,-889.215466"
       id="path4007"
       inkscape:connector-curvature="0"
       sodipodi:nodetypes="cc" />
    <path
       style="color:#000000;display:inline;overflow:visible;visibility:visible;fill:none;stroke:#000000;stroke-width:2;stroke-linecap:butt;stroke-linejoin:miter;stroke-miterlimit:4;stroke-dasharray:none;stroke-dashoffset:0;stroke-opacity:1;marker:none;enable-background:accumulate"
       d="m 956.5625,958.70544 -889.210579,-3e-5"
       id="path4005"
       inkscape:connector-curvature="0"
       sodipodi:nodetypes="cc" />
    <circle
       style="color:#000000;display:inline;overflow:visible;visibility:visible;fill:none;stroke:#000000;stroke-width:1.42908275;stroke-linecap:butt;stroke-linejoin:miter;stroke-miterlimit:4;stroke-dasharray:none;stroke-dashoffset:0;stroke-opacity:1;marker:none;enable-background:accumulate"
       id="path3129-7"
       transform="matrix(1.4025564,0,0,1.3964479,-135.79717,96.569794)"
       cx="462.32144"
       cy="298.86218"
       r="138" />
  </g>
</svg>
